<svg viewBox="33.6 96 745.6 590.4" version="1.1" y="0" x="0" id="Layer_1" xml:space="preserve" xmlns:xlink="http://www.w3.org/1999/xlink" xmlns="http://www.w3.org/2000/svg" style="max-height: 500px" width="745.6" height="590.4"><style>.st2{fill:#0e538c}.st3{fill:#2a94f4}.st4{fill:#ffbe55}.st5{fill:#192541}.st6{fill:#fcd2b1}.st12{fill:#303030}.st13{fill:#cce9ff}</style><path opacity=".09" d="M197.1 622.2c-12.4-9.7-20.5-24-22.5-39.6-7-52.5 5.2-169.3 115.6-267.1 134-118.7 274-110.5 341.8-80.7 74.7 32.8 122.1 142.8 129.8 240.8 5.8 73.7-36.3 137.1-107.5 157.1-119.5 33.5-367.3 60-457.2-10.5z" fill="#2a94f4" id="XMLID_237_"/><path opacity=".3" d="M635.8 543c12.9-10.1 21.3-24.9 23.4-41.2 7.2-54.6-5.4-176-120.2-277.7-139.4-123.4-284.9-114.9-355.4-83.9-77.7 34.1-127 148.5-134.9 250.4-6 76.6 37.7 142.6 111.8 163.3 124.1 35 381.8 62.4 475.3-10.9z" fill="#cce9ff" id="XMLID_521_"/><g id="XMLID_36_"><path class="st2" d="M608.2 449.6H187.9c-8.8 0-16-7.2-16-16V180.4c0-8.8 7.2-16 16-16h420.3c8.8 0 16 7.2 16 16v253.2c0 8.8-7.2 16-16 16z" id="XMLID_130_"/></g><g id="XMLID_62_"><path class="st3" d="M624.2 215.6H171.9v-35.1c0-8.8 7.2-16 16-16h420.3c8.8 0 16 7.2 16 16v35.1z" id="XMLID_129_"/></g><g id="XMLID_90_"><g id="XMLID_85_"><path class="st4" d="M237.3 247h-38.2c-1.8 0-3.3-1.7-3.3-3.5s1.5-3.5 3.3-3.5h38.2c1.8 0 3.3 1.7 3.3 3.5s-1.4 3.5-3.3 3.5z" id="XMLID_127_"/></g><g id="XMLID_91_"><path class="st4" d="M250.6 263h-51.5c-1.8 0-3.3-.7-3.3-2.5s1.5-2.5 3.3-2.5h51.5c1.8 0 3.3.7 3.3 2.5s-1.4 2.5-3.3 2.5z" id="XMLID_126_"/></g><g id="XMLID_100_"><path class="st4" d="M250.6 330h-51.5c-1.8 0-3.3-1.7-3.3-3.5s1.5-3.5 3.3-3.5h51.5c1.8 0 3.3 1.7 3.3 3.5s-1.4 3.5-3.3 3.5z" id="XMLID_125_"/></g><g id="XMLID_101_"><path class="st4" d="M232.3 346H199c-1.8 0-3.3-.7-3.3-2.5s1.5-2.5 3.3-2.5h33.3c1.8 0 3.3.7 3.3 2.5s-1.4 2.5-3.3 2.5z" id="XMLID_124_"/></g><g id="XMLID_106_"><path class="st4" d="M232.3 397H199c-1.8 0-3.3-1.7-3.3-3.5s1.5-3.5 3.3-3.5h33.3c1.8 0 3.3 1.7 3.3 3.5s-1.4 3.5-3.3 3.5z" id="XMLID_123_"/></g><g id="XMLID_107_"><path class="st4" d="M232.3 413H199c-1.8 0-3.3-1.2-3.3-3s1.5-3 3.3-3h33.3c1.8 0 3.3 1.2 3.3 3s-1.4 3-3.3 3z" id="XMLID_122_"/></g><g id="XMLID_92_"><path class="st3" d="M283.9 281h-51.5c-1.8 0-3.3-1.7-3.3-3.5s1.5-3.5 3.3-3.5h51.5c1.8 0 3.3 1.7 3.3 3.5s-1.5 3.5-3.3 3.5z" id="XMLID_121_"/></g><g id="XMLID_96_"><path class="st3" d="M352.1 281h-51.5c-1.8 0-3.3-1.7-3.3-3.5s1.5-3.5 3.3-3.5h51.5c1.8 0 3.3 1.7 3.3 3.5s-1.5 3.5-3.3 3.5z" id="XMLID_120_"/></g><g id="XMLID_97_"><path class="st3" d="M498.4 281h-51.5c-1.8 0-3.3-1.7-3.3-3.5s1.5-3.5 3.3-3.5h51.5c1.8 0 3.3 1.7 3.3 3.5s-1.5 3.5-3.3 3.5z" id="XMLID_119_"/></g><g id="XMLID_98_"><path class="st3" d="M563.2 281h-51.5c-1.8 0-3.3-1.7-3.3-3.5s1.5-3.5 3.3-3.5h51.5c1.8 0 3.3 1.7 3.3 3.5s-1.4 3.5-3.3 3.5z" id="XMLID_118_"/></g><g id="XMLID_99_"><path class="st3" d="M493.4 297h-51.5c-1.8 0-3.3-1.2-3.3-3s1.5-3 3.3-3h51.5c1.8 0 3.3 1.2 3.3 3s-1.5 3-3.3 3z" id="XMLID_117_"/></g><g id="XMLID_104_"><path class="st3" d="M493.4 362h-51.5c-1.8 0-3.3-1.7-3.3-3.5s1.5-3.5 3.3-3.5h51.5c1.8 0 3.3 1.7 3.3 3.5s-1.5 3.5-3.3 3.5z" id="XMLID_116_"/></g><g id="XMLID_105_"><path class="st3" d="M531.6 378h-51.5c-1.8 0-3.3-.7-3.3-2.5s1.5-2.5 3.3-2.5h51.5c1.8 0 3.3.7 3.3 2.5s-1.4 2.5-3.3 2.5z" id="XMLID_115_"/></g><g id="XMLID_93_"><path class="st3" d="M277.2 297h-44.9c-1.8 0-3.3-1.2-3.3-3s1.5-3 3.3-3h44.9c1.8 0 3.3 1.2 3.3 3s-1.4 3-3.3 3z" id="XMLID_114_"/></g><g id="XMLID_95_"><path class="st3" d="M333.8 297h-44.9c-1.8 0-3.3-1.2-3.3-3s1.5-3 3.3-3h44.9c1.8 0 3.3 1.2 3.3 3s-1.5 3-3.3 3z" id="XMLID_113_"/></g><g id="XMLID_94_"><path class="st3" d="M363.7 314H232.3c-1.8 0-3.3-1.7-3.3-3.5s1.5-3.5 3.3-3.5h131.4c1.8 0 3.3 1.7 3.3 3.5s-1.5 3.5-3.3 3.5z" id="XMLID_112_"/></g><g id="XMLID_103_"><path class="st3" d="M345.4 362H232.3c-1.8 0-3.3-1.7-3.3-3.5s1.5-3.5 3.3-3.5h113.1c1.8 0 3.3 1.7 3.3 3.5s-1.5 3.5-3.3 3.5z" id="XMLID_111_"/></g><g id="XMLID_102_"><path class="st3" d="M363.7 378H232.3c-1.8 0-3.3-.7-3.3-2.5s1.5-2.5 3.3-2.5h131.4c1.8 0 3.3.7 3.3 2.5s-1.5 2.5-3.3 2.5z" id="XMLID_110_"/></g></g><path class="st5" d="M357 305.8s-24-21.8-12.2-45c2-4 2.8-8.4 2.7-12.8-.1-3.9 1-8.9 5.7-13.4 9.3-9 21.3-16.7 39.1-16.1s31.5 6 38.3 0c5.9-5.1 7.3-1.8 6.4 7.3-.3 3 .6 5.9 2.4 8.2 2.5 3.1 5.5 8.1 5.6 14.4.1 4 .9 7.9 2.5 11.5 3.8 8.5 7.6 25.9-9.8 47.1" id="XMLID_35_"/><g id="XMLID_52_"><defs><path d="M323.3 511.4c.5-9.1.4-18.2 0-27.3-1.7-33.2-.4-54.1-.4-68.6 0-8.7 5.6-37 19.6-38.6 15.3-1.8 37.7-6.1 72.7-4 47.5 2.8 50.6 13.6 50.4 44.2-.1 11.4 3 160.3 3 160.3-50.4 19.3-144.2 2-144.2 2 3.9-7.5-3.1-32.3-1.1-68z" id="XMLID_17_"/></defs><clipPath id="XMLID_7_"/></g><g id="XMLID_49_"><path class="st6" d="M493.1 445.4s21.8 49.6 17.1 79.4c-3.2 20.3-50.2 36.5-64.1 33.1-13.9-3.4-12.3-6.5.5-12.9s39.7-14.9 30.1-38.9c-9.5-24-25.8-73.3-25.8-73.3l42.2 12.6z" id="XMLID_33_"/><path class="st4" d="M447.1 377.6s17.7.7 31.6 17.3c4.1 4.9 5.6 12.7 9.1 20.5 2.6 5.8 1.1 12 2.9 19.6 0 0 9.1 22 9.1 24.5 0 0-35 5.9-41.1 9.8-6.1 3.8-24.6-91.9-11.6-91.7z" id="XMLID_32_"/></g><g id="XMLID_46_"><path class="st6" d="M299.8 441.8s-23.7 54.5-19 84.3c3.2 20.3 46.4 36.6 60.3 33.2 13.9-3.4 17.4-8.4 4.6-14.8-12.8-6.4-43.9-19.9-34.4-44 9.5-24 28-67.8 28-67.8l-39.5 9.1z" id="XMLID_31_"/><path class="st4" d="M340.9 377.6s-18.5 1-29.6 9.4c-6.3 4.8-7.7 12.4-8.4 22.4-.7 10.8-6.1 19.6-9.1 30.8-1.7 6.1-4 18.6-4 20 0 0 28.6 1.8 40.1 5.3 7 2.2 24-88.1 11-87.9z" id="XMLID_30_"/></g><g id="XMLID_37_"><g id="XMLID_43_"><g id="XMLID_58_"><path class="st6" d="M414.9 375.4v-41.5h-42.7v40.2s1.3 27 22.7 27.3c16.6.3 20-26 20-26z" id="XMLID_60_"/><path d="M414.9 354.9s-4.4 12.7-20.1 12.7c-10.3 0-22.5-11.5-22.5-15.3l-.1-12.6 42.7 2.3v12.9z" fill="#f4c6a4" id="XMLID_59_"/></g></g><ellipse transform="rotate(157.608 355.002 308.237)" ry="13.4" rx="10.4" class="st6" cy="308.2" cx="355" id="XMLID_24_"/><ellipse transform="rotate(-154.502 438.52 308.23)" ry="13.4" rx="10.4" class="st6" cy="308.2" cx="438.5" id="XMLID_23_"/><path d="M412.5 332.1c-5.4 3.6-17.9 7-31.7 1-1.1-.5-2.1.7-1.7 1.8 1.8 5.9 7.3 12.9 19.5 12.7 10.4-.2 14.5-8.9 15.9-13.5.3-1.2-1-2.7-2-2z" fill="#fff" id="XMLID_22_"/></g><path d="M319.5 462.8h150.9v103.9H319.5z" fill="#bbbcbc" id="XMLID_2_"/><path d="M316.9 566.7h156.2v5.4H316.9z" fill="#878787" id="XMLID_20_"/><path class="st5" d="M196.2 572H603v17.5H196.2z" id="XMLID_21_"/><g id="XMLID_40_"><g id="XMLID_39_"><path transform="scale(-1) rotate(-6.102 -9534.314 7995.877)" class="st4" d="M402.5 484.7h47.3v46.9h-47.3z" id="XMLID_156_"/><path d="m446.6 483.2 4.8 45.2-45.6 4.9L401 488l45.6-4.8m1.3-1.6-1.4.2-45.6 4.9-1.4.2.2 1.4 4.8 45.2.2 1.4 1.4-.2 45.6-4.9 1.4-.2-.2-1.4L448 483l-.1-1.4z" fill="#f7f7f7" id="XMLID_153_"/></g><path class="st12" d="M444.1 507.6c-1.1.9-2.1 1.7-3.1 2.5-.2-.2-.4-.5-.6-.7-.7-.8-1.7-1-2.7-.8-.7.2-1.2.6-1.4 1.4-.2.8.1 1.5.7 1.9.6.4 1.3.6 1.9.9 1.5.6 3 1 4.4 1.7 2.5 1.3 3.7 3.7 3.3 6.5-.2 1.6-1.1 3-2.5 3.8-3.2 1.9-6.5 2-9.8.2-1-.6-1.8-1.4-2.5-2.5l3.3-2.4c.3.3.6.6.8.9 1.4 1.3 3.3 1.7 4.9.9.8-.3 1.3-.9 1.3-1.8s-.4-1.5-1.2-1.9c-1.1-.4-2.2-.8-3.4-1.2-.9-.4-1.9-.7-2.8-1.2-2.3-1.3-3.4-3.8-2.9-6.3.4-2.3 2.2-4.1 4.8-4.6 2.8-.5 5.2-.1 7.1 2.3.2.1.2.2.4.4z" id="XMLID_88_"/><path class="st12" d="M420.1 522c.4.4.6.8.9 1.1.7.7 1.5.9 2.5.7.9-.2 1.4-.7 1.5-1.7v-1.3c-.5-4.5-.9-9-1.5-13.5-.1-.7.1-.9.8-1 .9 0 1.8-.1 2.7-.3.6-.1.8.1.9.7.4 4.4.9 8.7 1.4 13.1 0 .5.1.9.1 1.4.2 3.6-1.4 5.7-4.9 6.5-2.9.7-5.7-.3-7.4-2.6-.3-.5-.3-.7.2-1 .9-.6 1.8-1.3 2.8-2.1z" id="XMLID_87_"/></g><g id="XMLID_4_"><g id="XMLID_84_"><circle class="st13" r="9.7" cy="192" cx="203.2" id="XMLID_128_"/></g><g id="XMLID_86_"><circle class="st13" r="9.7" cy="192" cx="233.6" id="XMLID_109_"/></g><circle class="st13" r="8.5" cy="191.8" cx="263.9" id="XMLID_89_"/></g><path class="st2" d="M571.8 572h-35.4l-4.4-66.6h44.1z" id="XMLID_131_"/><path class="st3" d="M574.7 502.2h-41.3l1.5-7.6h38.4z" id="XMLID_42_"/><path d="M578.4 508.2h-48.6l1.4-7.7h45.7z" fill="#0b4870" id="XMLID_38_"/><g id="XMLID_151_"><defs><path d="M571.8 571.6h-35.4L532 505h44.1z" id="XMLID_135_"/></defs><clipPath id="XMLID_8_"/><path clip-path="url(#XMLID_8_)" d="M528.8 523.7h50.7v25.4h-50.7z" fill="#ffbe55" id="XMLID_44_"/></g><ellipse ry="61.3" rx="42.3" class="st6" cy="302.7" cx="395.9" id="XMLID_1_"/><ellipse ry="22.5" rx="47.4" class="st5" cy="256" cx="396.1" id="XMLID_3_"/></svg>